<svg xmlns="http://www.w3.org/2000/svg" viewBox="0 0 512 512">
  <defs>
    <linearGradient id="bg" x1="0%" y1="0%" x2="100%" y2="100%">
      <stop offset="0%" style="stop-color:#EC4899"/>
      <stop offset="100%" style="stop-color:#A855F7"/>
    </linearGradient>
  </defs>
  <rect width="512" height="512" rx="100" fill="url(#bg)"/>
  <!-- Scissors icon -->
  <g transform="translate(106, 80) scale(0.6)" fill="white">
    <path d="M256 0c-17.7 0-32 14.3-32 32l0 32-64 0c-35.3 0-64 28.7-64 64l0 64c0 35.3 28.7 64 64 64l64 0 0 64c0 17.7 14.3 32 32 32s32-14.3 32-32l0-64 64 0c35.3 0 64-28.7 64-64l0-64c0-35.3-28.7-64-64-64l-64 0 0-32c0-17.7-14.3-32-32-32z"/>
  </g>
  <!-- CH text -->
  <text x="256" y="420" font-size="120" font-weight="bold" text-anchor="middle" fill="white" font-family="Arial, Helvetica, sans-serif">CH</text>
</svg>
